<svg width="417" height="325" viewBox="0 0 417 325" fill="none" xmlns="http://www.w3.org/2000/svg">
<path d="M416.547 285.648H0V285.867H416.547V285.648Z" fill="#E0E0E0"/>
<path d="M75.8244 296.02H25.4287V296.238H75.8244V296.02Z" fill="#E0E0E0"/>
<path d="M185.95 291.283H162.99V291.501H185.95V291.283Z" fill="#E0E0E0"/>
<path d="M239.076 291.17H194.342V291.388H239.076V291.17Z" fill="#E0E0E0"/>
<path d="M324.226 293.787H313.331V294.005H324.226V293.787Z" fill="#E0E0E0"/>
<path d="M275.707 293.787H232.246V294.005H275.707V293.787Z" fill="#E0E0E0"/>
<path d="M92.9053 296.02H84.269V296.238H92.9053V296.02Z" fill="#E0E0E0"/>
<path d="M369.074 293.787H331.345V294.005H369.074V293.787Z" fill="#E0E0E0"/>
<path d="M168.392 246.399H36.6033C35.5709 246.397 34.5813 245.872 33.8519 244.939C33.1226 244.006 32.7129 242.742 32.7129 241.424V4.93147C32.7219 3.62108 33.1355 2.36813 33.8639 1.44478C34.5923 0.521428 35.5767 0.00224477 36.6033 0H168.392C169.425 0 170.417 0.524155 171.147 1.45716C171.878 2.39016 172.289 3.65558 172.289 4.97504V241.424C172.289 242.744 171.878 244.009 171.147 244.942C170.417 245.875 169.425 246.399 168.392 246.399V246.399ZM36.6033 0.174258C35.6161 0.176566 34.67 0.678788 33.9726 1.57069C33.2752 2.46259 32.8835 3.67129 32.8835 4.93147V241.424C32.8835 242.685 33.2752 243.893 33.9726 244.785C34.67 245.677 35.6161 246.179 36.6033 246.182H168.392C169.379 246.179 170.326 245.677 171.025 244.786C171.723 243.894 172.116 242.685 172.118 241.424V4.93147C172.116 3.67049 171.723 2.46181 171.025 1.57016C170.326 0.678505 169.379 0.176561 168.392 0.174258H36.6033Z" fill="#E0E0E0"/>
<path d="M375.817 246.661H207.366C206.046 246.659 204.78 246.133 203.847 245.2C202.913 244.266 202.388 243.001 202.385 241.681V4.93671C202.399 3.62413 202.93 2.36986 203.862 1.44577C204.794 0.521677 206.054 0.00222265 207.366 0H375.817C377.128 0.00453942 378.384 0.525288 379.313 1.44938C380.242 2.37347 380.769 3.62644 380.781 4.93671V241.681C380.781 242.999 380.258 244.263 379.328 245.196C378.398 246.13 377.135 246.657 375.817 246.661V246.661ZM207.366 0.174443C206.104 0.176748 204.894 0.679226 204.001 1.57182C203.108 2.46442 202.606 3.67439 202.603 4.93671V241.681C202.606 242.943 203.108 244.153 204.001 245.046C204.894 245.938 206.104 246.441 207.366 246.443H375.817C377.08 246.441 378.29 245.938 379.182 245.046C380.075 244.153 380.578 242.943 380.58 241.681V4.93671C380.578 3.67439 380.075 2.46442 379.182 1.57182C378.29 0.679226 377.08 0.176748 375.817 0.174443H207.366Z" fill="#E0E0E0"/>
<path d="M47.2118 71.355C43.4083 63.1387 46.4266 57.2949 55.7172 57.2949C61.5532 57.2949 68.8024 59.5976 75.7812 63.3393C76.5838 61.2024 78.817 59.929 82.4198 59.929C88.7618 59.929 97.5114 63.8801 104.368 69.4623C106.482 68.0528 108.972 67.3114 111.513 67.3341C117.619 67.0811 124.929 69.3576 131.324 73.0558C131.699 72.7005 132.142 72.4234 132.626 72.2407C133.109 72.058 133.625 71.9734 134.141 71.9917C137.631 71.8521 142.368 74.146 144.723 77.1115C144.871 77.3034 144.993 77.4779 145.124 77.661H45.3624C45.1651 76.5385 45.2293 75.3856 45.5501 74.2919C45.8708 73.1982 46.4394 72.1932 47.2118 71.355Z" fill="#F5F5F5"/>
<path d="M160.355 32.2718C160.662 32.2367 160.971 32.2192 161.28 32.2195C160.992 29.0097 162.658 26.9862 166.209 26.9862C168.774 26.9862 171.914 28.059 175.124 29.8732C174.208 23.6456 177.139 19.5898 183.795 19.5898C189.16 19.5898 195.947 22.2065 202.656 26.5675C203.24 24.1253 205.22 22.66 208.544 22.66C214.371 22.66 222.667 27.1781 229.315 33.5627C231.079 31.9772 233.371 31.1065 235.744 31.1205C241.301 30.8326 248.192 33.4318 254.307 37.6708C254.599 37.278 254.981 36.9617 255.422 36.749C255.863 36.5364 256.348 36.4337 256.837 36.4497C259.873 36.3014 264.06 38.6302 266.485 41.7614H155.47C152.862 36.973 154.938 32.8213 160.355 32.2718Z" fill="#F5F5F5"/>
<path d="M309.248 18.6748C306.806 13.4416 308.751 9.64746 314.709 9.64746C318.451 9.64746 323.092 11.1215 327.611 13.5288C328.117 12.1594 329.556 11.3308 331.868 11.3308C335.942 11.3308 341.551 13.8777 345.948 17.4363C347.307 16.5342 348.905 16.0602 350.536 16.0757C354.427 15.9099 359.147 17.3665 363.247 19.7477C363.486 19.5181 363.77 19.3389 364.08 19.2205C364.39 19.1022 364.721 19.0471 365.052 19.0586C366.351 19.1054 367.626 19.422 368.796 19.9881C369.966 20.5542 371.005 21.3574 371.848 22.3469L372.11 22.6957H306.204C304.119 20.8466 306.422 18.7621 309.248 18.6748Z" fill="#F5F5F5"/>
<path d="M87.8538 190.595H58.1416V285.561H87.8538V190.595Z" fill="#EBEBEB"/>
<path d="M78.1455 285.562H126.866L126.866 157.548H78.1455L78.1455 285.562Z" fill="#F5F5F5"/>
<path d="M152.156 157.546H126.866V285.56H152.156V157.546Z" fill="#EBEBEB"/>
<path d="M84.6968 157.546H126.866V144.82H84.6968V157.546Z" fill="#F5F5F5"/>
<path d="M84.6968 157.546H126.866V154.685H84.6968V157.546Z" fill="#EBEBEB"/>
<path d="M145.596 144.821H126.866V157.547H145.596V144.821Z" fill="#EBEBEB"/>
<path d="M91.2481 144.821H126.857V132.096H91.2481V144.821Z" fill="#F5F5F5"/>
<path d="M91.2481 144.821H126.857V141.96H91.2481V144.821Z" fill="#EBEBEB"/>
<path d="M139.044 132.097H126.866V144.822H139.044V132.097Z" fill="#EBEBEB"/>
<path d="M116.328 114.321H113.964V132.106H116.328V114.321Z" fill="#EBEBEB"/>
<path d="M144.078 285.562H179.661V179.807H144.078V285.562Z" fill="#F5F5F5"/>
<path d="M198.129 179.807H179.661V285.562H198.129V179.807Z" fill="#EBEBEB"/>
<path d="M188.89 210.02L215.871 233.151V285.562H188.89V210.02Z" fill="#F5F5F5"/>
<path d="M229.882 233.143H215.88V285.554H229.882V233.143Z" fill="#EBEBEB"/>
<path d="M229.881 233.151H215.871L188.89 210.02H202.9L229.881 233.151Z" fill="#EBEBEB"/>
<path d="M356.354 285.563C356.729 283.467 357.619 281.498 358.946 279.834C360.273 278.169 361.993 276.862 363.953 276.029C362.233 278.897 361.452 282.23 361.719 285.563H356.354Z" fill="#EBEBEB"/>
<path d="M104.708 285.563C104.334 283.467 103.443 281.498 102.116 279.834C100.79 278.169 99.069 276.862 97.1099 276.029C98.8298 278.897 99.6106 282.23 99.3431 285.563H104.708Z" fill="#EBEBEB"/>
<path d="M42.4051 285.561C42.4051 285.561 41.9776 274.397 37.3105 271.152C39.221 275.714 38.8197 285.561 38.8197 285.561H42.4051Z" fill="#EBEBEB"/>
<path d="M40.6509 285.562C40.6509 285.562 41.0783 279.151 45.7454 277.293C43.835 279.91 44.2537 285.562 44.2537 285.562H40.6509Z" fill="#EBEBEB"/>
<path d="M108.704 285.561C108.704 285.561 108.233 274.99 99.771 271.152C103.557 276.577 103.339 285.561 103.339 285.561H108.704Z" fill="#EBEBEB"/>
<path d="M317.352 271.258H295.97C295.739 271.258 295.517 271.166 295.354 271.003C295.19 270.839 295.098 270.617 295.098 270.386V249.034C295.098 248.803 295.19 248.581 295.354 248.418C295.517 248.254 295.739 248.162 295.97 248.162H317.352C317.583 248.162 317.805 248.254 317.969 248.418C318.132 248.581 318.224 248.803 318.224 249.034V270.386C318.224 270.617 318.132 270.839 317.969 271.003C317.805 271.166 317.583 271.258 317.352 271.258ZM296.843 269.514H316.479V249.907H296.843V269.514Z" fill="#E0E0E0"/>
<path d="M317.352 249.905H295.97C295.739 249.905 295.517 249.814 295.354 249.65C295.19 249.486 295.098 249.265 295.098 249.033V227.647C295.098 227.415 295.19 227.193 295.354 227.03C295.517 226.866 295.739 226.774 295.97 226.774H317.352C317.583 226.774 317.805 226.866 317.969 227.03C318.132 227.193 318.224 227.415 318.224 227.647V249.033C318.224 249.265 318.132 249.486 317.969 249.65C317.805 249.814 317.583 249.905 317.352 249.905ZM296.843 248.161H316.479V228.519H296.843V248.161Z" fill="#E0E0E0"/>
<path d="M317.352 271.258C317.122 271.254 316.903 271.16 316.742 270.996L295.352 249.618C295.188 249.454 295.095 249.231 295.095 248.999C295.095 248.767 295.188 248.544 295.352 248.38C295.516 248.215 295.739 248.123 295.971 248.123C296.203 248.123 296.426 248.215 296.59 248.38L317.972 269.801C318.134 269.964 318.225 270.186 318.225 270.416C318.225 270.646 318.134 270.867 317.972 271.031C317.803 271.185 317.581 271.266 317.352 271.258Z" fill="#E0E0E0"/>
<path d="M317.352 249.905C317.124 249.904 316.904 249.813 316.742 249.652L295.352 228.265C295.189 228.102 295.098 227.881 295.098 227.65C295.098 227.42 295.189 227.199 295.352 227.035C295.433 226.954 295.529 226.889 295.636 226.844C295.742 226.8 295.856 226.777 295.971 226.777C296.086 226.777 296.2 226.8 296.307 226.844C296.413 226.889 296.509 226.954 296.591 227.035L317.972 248.413C318.095 248.535 318.179 248.691 318.213 248.861C318.247 249.031 318.23 249.207 318.163 249.367C318.097 249.527 317.984 249.664 317.84 249.759C317.695 249.855 317.526 249.906 317.352 249.905Z" fill="#E0E0E0"/>
<path d="M317.352 228.519H295.97C295.739 228.519 295.517 228.427 295.354 228.263C295.19 228.1 295.098 227.878 295.098 227.647V206.269C295.098 206.037 295.19 205.816 295.354 205.652C295.517 205.488 295.739 205.396 295.97 205.396H317.352C317.583 205.396 317.805 205.488 317.969 205.652C318.132 205.816 318.224 206.037 318.224 206.269V227.647C318.224 227.878 318.132 228.1 317.969 228.263C317.805 228.427 317.583 228.519 317.352 228.519ZM296.843 226.774H316.479V207.141H296.843V226.774Z" fill="#E0E0E0"/>
<path d="M317.352 207.141H295.97C295.739 207.141 295.517 207.049 295.354 206.886C295.19 206.722 295.098 206.5 295.098 206.269V184.908C295.098 184.677 295.19 184.455 295.354 184.292C295.517 184.128 295.739 184.036 295.97 184.036H317.352C317.583 184.036 317.805 184.128 317.969 184.292C318.132 184.455 318.224 184.677 318.224 184.908V206.295C318.217 206.522 318.122 206.737 317.96 206.895C317.797 207.053 317.579 207.141 317.352 207.141ZM296.843 205.397H316.479V185.781H296.843V205.397Z" fill="#E0E0E0"/>
<path d="M317.352 228.52C317.124 228.519 316.904 228.428 316.742 228.267L295.352 206.88C295.189 206.717 295.098 206.496 295.098 206.265C295.098 206.035 295.189 205.814 295.352 205.651C295.433 205.569 295.529 205.504 295.636 205.46C295.742 205.415 295.856 205.393 295.971 205.393C296.086 205.393 296.2 205.415 296.307 205.46C296.413 205.504 296.509 205.569 296.591 205.651L317.972 227.037C318.134 227.201 318.226 227.422 318.226 227.652C318.226 227.883 318.134 228.104 317.972 228.267C317.89 228.348 317.794 228.412 317.687 228.455C317.581 228.499 317.467 228.521 317.352 228.52Z" fill="#E0E0E0"/>
<path d="M317.352 207.14C317.122 207.137 316.903 207.043 316.742 206.879L295.352 185.501C295.188 185.337 295.095 185.114 295.095 184.882C295.095 184.649 295.188 184.427 295.352 184.262C295.516 184.098 295.739 184.006 295.971 184.006C296.203 184.006 296.426 184.098 296.59 184.262L317.972 205.649C318.134 205.812 318.225 206.033 318.225 206.264C318.225 206.494 318.134 206.715 317.972 206.879C317.891 206.961 317.795 207.027 317.688 207.072C317.582 207.117 317.468 207.14 317.352 207.14Z" fill="#E0E0E0"/>
<path d="M317.352 185.781H295.97C295.739 185.781 295.517 185.689 295.354 185.526C295.19 185.362 295.098 185.14 295.098 184.909V163.496C295.098 163.265 295.19 163.043 295.354 162.879C295.517 162.716 295.739 162.624 295.97 162.624H317.352C317.583 162.624 317.805 162.716 317.969 162.879C318.132 163.043 318.224 163.265 318.224 163.496V184.909C318.224 185.14 318.132 185.362 317.969 185.526C317.805 185.689 317.583 185.781 317.352 185.781ZM296.843 184.037H316.479V164.368H296.843V184.037Z" fill="#E0E0E0"/>
<path d="M317.352 164.367H295.97C295.739 164.367 295.517 164.276 295.354 164.112C295.19 163.948 295.098 163.727 295.098 163.495V142.117C295.098 141.886 295.19 141.664 295.354 141.501C295.517 141.337 295.739 141.245 295.97 141.245H317.352C317.583 141.245 317.805 141.337 317.969 141.501C318.132 141.664 318.224 141.886 318.224 142.117V163.495C318.224 163.727 318.132 163.948 317.969 164.112C317.805 164.276 317.583 164.367 317.352 164.367ZM296.843 162.623H316.479V142.99H296.843V162.623Z" fill="#E0E0E0"/>
<path d="M317.352 185.781C317.124 185.78 316.904 185.689 316.742 185.528L295.352 164.141C295.189 163.978 295.098 163.757 295.098 163.526C295.098 163.296 295.189 163.075 295.352 162.911C295.433 162.83 295.529 162.765 295.636 162.72C295.742 162.676 295.856 162.653 295.971 162.653C296.086 162.653 296.2 162.676 296.307 162.72C296.413 162.765 296.509 162.83 296.591 162.911L317.972 184.263C318.095 184.385 318.179 184.541 318.213 184.711C318.247 184.881 318.23 185.057 318.163 185.217C318.097 185.377 317.984 185.513 317.84 185.609C317.695 185.705 317.526 185.756 317.352 185.755V185.781Z" fill="#E0E0E0"/>
<path d="M295.971 92.9345H274.581C274.349 92.9345 274.128 92.8426 273.964 92.6791C273.8 92.5155 273.708 92.2937 273.708 92.0623V70.6496C273.708 70.4182 273.8 70.1964 273.964 70.0328C274.128 69.8692 274.349 69.7773 274.581 69.7773H295.971C296.202 69.7773 296.424 69.8692 296.588 70.0328C296.751 70.1964 296.843 70.4182 296.843 70.6496V92.0274C296.848 92.1449 296.829 92.2621 296.787 92.3719C296.745 92.4818 296.682 92.5821 296.6 92.6669C296.519 92.7516 296.421 92.819 296.313 92.865C296.205 92.911 296.088 92.9346 295.971 92.9345ZM275.453 91.1901H295.098V71.5218H275.453V91.1901Z" fill="#E0E0E0"/>
<path d="M317.352 92.9339H295.97C295.739 92.9339 295.517 92.842 295.354 92.6784C295.19 92.5149 295.098 92.293 295.098 92.0617C295.098 91.8304 295.19 91.6085 295.354 91.445C295.517 91.2814 295.739 91.1895 295.97 91.1895H316.479V49.3234C316.479 49.0921 316.571 48.8702 316.735 48.7066C316.899 48.5431 317.12 48.4512 317.352 48.4512C317.583 48.4512 317.805 48.5431 317.969 48.7066C318.132 48.8702 318.224 49.0921 318.224 49.3234V92.0617C318.224 92.293 318.132 92.5149 317.969 92.6784C317.805 92.842 317.583 92.9339 317.352 92.9339Z" fill="#E0E0E0"/>
<path d="M295.97 92.9346C295.821 92.9357 295.674 92.8983 295.543 92.8261C295.412 92.754 295.302 92.6494 295.223 92.5224C295.144 92.3955 295.099 92.2504 295.093 92.1011C295.086 91.9519 295.118 91.8034 295.185 91.6699L316.575 48.9316C316.68 48.7262 316.861 48.5705 317.08 48.4986C317.299 48.4267 317.538 48.4444 317.744 48.5479C317.951 48.6509 318.109 48.8318 318.182 49.051C318.256 49.2702 318.239 49.5096 318.137 49.7166L296.747 92.4549C296.674 92.5988 296.563 92.7197 296.426 92.8044C296.289 92.8891 296.131 92.9342 295.97 92.9346Z" fill="#E0E0E0"/>
<path d="M274.58 92.9345H253.199C252.968 92.9345 252.746 92.8426 252.582 92.6791C252.419 92.5155 252.327 92.2937 252.327 92.0623V70.6496C252.327 70.4182 252.419 70.1964 252.582 70.0328C252.746 69.8692 252.968 69.7773 253.199 69.7773H274.58C274.812 69.7773 275.034 69.8692 275.197 70.0328C275.361 70.1964 275.453 70.4182 275.453 70.6496V92.0274C275.457 92.1449 275.438 92.2621 275.397 92.3719C275.355 92.4818 275.291 92.5821 275.21 92.6669C275.128 92.7516 275.031 92.819 274.922 92.865C274.814 92.911 274.698 92.9346 274.58 92.9345ZM254.071 91.1901H273.708V71.5218H254.071V91.1901Z" fill="#E0E0E0"/>
<path d="M274.581 92.934C274.411 92.9316 274.244 92.8792 274.103 92.7832C273.962 92.6872 273.852 92.5518 273.787 92.394C273.722 92.2361 273.705 92.0626 273.737 91.895C273.77 91.7275 273.851 91.5732 273.971 91.4513L295.352 70.0646C295.433 69.9829 295.53 69.918 295.636 69.8737C295.742 69.8294 295.856 69.8066 295.971 69.8066C296.086 69.8066 296.2 69.8294 296.307 69.8737C296.413 69.918 296.51 69.9829 296.591 70.0646C296.753 70.2281 296.844 70.4491 296.844 70.6796C296.844 70.91 296.753 71.131 296.591 71.2945L275.227 92.6811C275.142 92.7651 275.041 92.8309 274.93 92.8744C274.819 92.9179 274.7 92.9382 274.581 92.934Z" fill="#E0E0E0"/>
<path d="M338.741 92.9345H317.351C317.12 92.9345 316.898 92.8426 316.734 92.6791C316.571 92.5155 316.479 92.2937 316.479 92.0623V70.6496C316.479 70.4182 316.571 70.1964 316.734 70.0328C316.898 69.8692 317.12 69.7773 317.351 69.7773H338.741C338.973 69.7773 339.195 69.8692 339.358 70.0328C339.522 70.1964 339.614 70.4182 339.614 70.6496V92.0274C339.618 92.1449 339.599 92.2621 339.558 92.3719C339.516 92.4818 339.452 92.5821 339.371 92.6669C339.289 92.7516 339.192 92.819 339.083 92.865C338.975 92.911 338.859 92.9346 338.741 92.9345ZM318.224 91.1901H337.869V71.5218H318.224V91.1901Z" fill="#E0E0E0"/>
<path d="M317.352 92.934C317.181 92.9316 317.015 92.8792 316.874 92.7832C316.732 92.6872 316.622 92.5518 316.557 92.394C316.492 92.2361 316.475 92.0626 316.508 91.8951C316.54 91.7275 316.622 91.5732 316.741 91.4513L338.122 70.0646C338.204 69.9829 338.3 69.918 338.406 69.8737C338.513 69.8294 338.627 69.8066 338.742 69.8066C338.857 69.8066 338.971 69.8294 339.077 69.8737C339.184 69.918 339.28 69.9829 339.361 70.0646C339.524 70.2281 339.615 70.4491 339.615 70.6796C339.615 70.91 339.524 71.131 339.361 71.2945L317.971 92.6811C317.89 92.7619 317.793 92.8259 317.687 92.8693C317.58 92.9127 317.467 92.9347 317.352 92.934Z" fill="#E0E0E0"/>
<path d="M189.038 92.9342C188.923 92.9349 188.809 92.9129 188.703 92.8695C188.597 92.8261 188.5 92.7621 188.419 92.6813C188.256 92.5178 188.165 92.2968 188.165 92.0664C188.165 91.8359 188.256 91.6149 188.419 91.4515L209.8 70.0649C209.919 69.9402 210.075 69.8575 210.245 69.8294L317.186 48.4428C317.326 48.4147 317.471 48.4215 317.608 48.4626C317.745 48.5036 317.87 48.5777 317.971 48.6783L360.717 91.4166C360.808 91.4948 360.882 91.591 360.934 91.6992C360.987 91.8074 361.016 91.9253 361.021 92.0454C361.025 92.1655 361.005 92.2853 360.961 92.3972C360.917 92.5091 360.851 92.6108 360.766 92.6958C360.681 92.7808 360.579 92.8473 360.467 92.8912C360.355 92.935 360.236 92.9552 360.115 92.9506C359.995 92.946 359.877 92.9165 359.769 92.8642C359.661 92.8118 359.565 92.7377 359.486 92.6464L317.099 50.2482L210.856 71.5214L189.649 92.7162C189.481 92.8646 189.262 92.9427 189.038 92.9342Z" fill="#E0E0E0"/>
<path d="M253.2 92.9346C253.085 92.9352 252.971 92.9132 252.865 92.8698C252.759 92.8264 252.662 92.7625 252.58 92.6816C252.418 92.5182 252.327 92.2971 252.327 92.0667C252.327 91.8363 252.418 91.6152 252.58 91.4518L273.97 70.0652C274.137 69.9223 274.352 69.8476 274.571 69.8561C274.791 69.8646 274.999 69.9556 275.155 70.1109C275.31 70.2663 275.401 70.4745 275.409 70.694C275.418 70.9135 275.343 71.1282 275.2 71.295L253.81 92.6816C253.648 92.8428 253.429 92.9336 253.2 92.9346V92.9346Z" fill="#E0E0E0"/>
<path d="M253.2 92.9345H231.81C231.579 92.9345 231.357 92.8426 231.193 92.6791C231.03 92.5155 230.938 92.2937 230.938 92.0623V70.6496C230.938 70.4182 231.03 70.1964 231.193 70.0328C231.357 69.8692 231.579 69.7773 231.81 69.7773H253.2C253.432 69.7773 253.654 69.8692 253.817 70.0328C253.981 70.1964 254.073 70.4182 254.073 70.6496V92.0274C254.077 92.1449 254.058 92.2621 254.017 92.3719C253.975 92.4818 253.911 92.5821 253.83 92.6669C253.748 92.7516 253.651 92.819 253.542 92.865C253.434 92.911 253.318 92.9346 253.2 92.9345ZM232.683 91.1901H252.328V71.5218H232.683V91.1901Z" fill="#E0E0E0"/>
<path d="M231.809 92.9345H210.419C210.188 92.9345 209.966 92.8426 209.802 92.6791C209.639 92.5155 209.547 92.2937 209.547 92.0623V70.6496C209.547 70.4182 209.639 70.1964 209.802 70.0328C209.966 69.8692 210.188 69.7773 210.419 69.7773H231.809C232.041 69.7773 232.262 69.8692 232.426 70.0328C232.59 70.1964 232.682 70.4182 232.682 70.6496V92.0274C232.686 92.1449 232.667 92.2621 232.625 92.3719C232.584 92.4818 232.52 92.5821 232.439 92.6669C232.357 92.7516 232.26 92.819 232.151 92.865C232.043 92.911 231.927 92.9346 231.809 92.9345ZM211.292 91.1901H230.937V71.5218H211.292V91.1901Z" fill="#E0E0E0"/>
<path d="M231.81 92.9346C231.695 92.9352 231.581 92.9132 231.475 92.8698C231.368 92.8264 231.272 92.7625 231.19 92.6816C231.028 92.5182 230.937 92.2971 230.937 92.0667C230.937 91.8363 231.028 91.6152 231.19 91.4518L252.545 70.0652C252.712 69.9223 252.927 69.8476 253.146 69.8561C253.366 69.8646 253.574 69.9556 253.73 70.1109C253.885 70.2663 253.976 70.4745 253.984 70.694C253.993 70.9135 253.918 71.1282 253.775 71.295L232.394 92.6816C232.238 92.8366 232.029 92.9269 231.81 92.9346Z" fill="#E0E0E0"/>
<path d="M210.42 92.934C210.249 92.9316 210.083 92.8792 209.941 92.7832C209.8 92.6872 209.69 92.5518 209.625 92.394C209.56 92.2361 209.543 92.0626 209.576 91.8951C209.608 91.7275 209.689 91.5732 209.809 91.4513L231.19 70.0646C231.271 69.9829 231.368 69.918 231.474 69.8737C231.58 69.8294 231.695 69.8066 231.81 69.8066C231.925 69.8066 232.039 69.8294 232.145 69.8737C232.251 69.918 232.348 69.9829 232.429 70.0646C232.592 70.2281 232.683 70.4491 232.683 70.6796C232.683 70.91 232.592 71.131 232.429 71.2945L211.039 92.6811C210.958 92.7619 210.861 92.8259 210.755 92.8693C210.648 92.9127 210.534 92.9347 210.42 92.934Z" fill="#E0E0E0"/>
<path d="M210.42 92.9345H189.038C188.807 92.9345 188.585 92.8426 188.422 92.6791C188.258 92.5155 188.166 92.2937 188.166 92.0623C188.166 91.831 188.258 91.6092 188.422 91.4456C188.585 91.282 188.807 91.1901 189.038 91.1901H209.547V70.6496C209.547 70.4182 209.639 70.1964 209.803 70.0328C209.966 69.8692 210.188 69.7773 210.42 69.7773C210.651 69.7773 210.873 69.8692 211.037 70.0328C211.2 70.1964 211.292 70.4182 211.292 70.6496V92.0274C211.297 92.1449 211.278 92.2621 211.236 92.3719C211.194 92.4818 211.131 92.5821 211.049 92.6669C210.968 92.7516 210.87 92.819 210.762 92.865C210.654 92.911 210.537 92.9346 210.42 92.9345Z" fill="#E0E0E0"/>
<path d="M317.352 164.367C317.124 164.366 316.904 164.275 316.742 164.114L295.352 142.736C295.27 142.655 295.206 142.558 295.162 142.452C295.118 142.346 295.095 142.232 295.095 142.117C295.095 142.002 295.118 141.888 295.162 141.782C295.206 141.676 295.27 141.579 295.352 141.498C295.433 141.416 295.53 141.352 295.636 141.308C295.742 141.264 295.856 141.241 295.971 141.241C296.086 141.241 296.2 141.264 296.306 141.308C296.413 141.352 296.509 141.416 296.59 141.498L317.972 162.884C318.134 163.048 318.225 163.269 318.225 163.499C318.225 163.73 318.134 163.951 317.972 164.114C317.89 164.195 317.794 164.259 317.687 164.302C317.581 164.346 317.467 164.368 317.352 164.367V164.367Z" fill="#E0E0E0"/>
<path d="M317.352 142.99H295.97C295.739 142.99 295.517 142.899 295.354 142.735C295.19 142.571 295.098 142.35 295.098 142.118V120.732C295.098 120.5 295.19 120.278 295.354 120.115C295.517 119.951 295.739 119.859 295.97 119.859H317.352C317.583 119.859 317.805 119.951 317.969 120.115C318.132 120.278 318.224 120.5 318.224 120.732V142.118C318.224 142.35 318.132 142.571 317.969 142.735C317.805 142.899 317.583 142.99 317.352 142.99ZM296.843 141.246H316.479V121.604H296.843V141.246Z" fill="#E0E0E0"/>
<path d="M317.352 121.603H295.97C295.739 121.603 295.517 121.511 295.354 121.347C295.19 121.184 295.098 120.962 295.098 120.731V99.3527C295.098 99.1214 295.19 98.8995 295.354 98.7359C295.517 98.5724 295.739 98.4805 295.97 98.4805H317.352C317.583 98.4805 317.805 98.5724 317.969 98.7359C318.132 98.8995 318.224 99.1214 318.224 99.3527V120.731C318.224 120.962 318.132 121.184 317.969 121.347C317.805 121.511 317.583 121.603 317.352 121.603ZM296.843 119.858H316.479V100.225H296.843V119.858Z" fill="#E0E0E0"/>
<path d="M317.352 142.99C317.124 142.989 316.904 142.898 316.742 142.737L295.352 121.351C295.27 121.269 295.206 121.173 295.162 121.066C295.118 120.96 295.095 120.846 295.095 120.731C295.095 120.616 295.118 120.502 295.162 120.396C295.206 120.29 295.27 120.193 295.352 120.112C295.433 120.031 295.53 119.966 295.636 119.922C295.742 119.878 295.856 119.855 295.971 119.855C296.086 119.855 296.2 119.878 296.306 119.922C296.413 119.966 296.509 120.031 296.59 120.112L317.972 141.499C318.095 141.621 318.179 141.776 318.213 141.946C318.247 142.116 318.23 142.292 318.163 142.452C318.097 142.612 317.984 142.749 317.84 142.845C317.695 142.94 317.526 142.991 317.352 142.99Z" fill="#E0E0E0"/>
<path d="M317.352 121.603C317.124 121.602 316.904 121.511 316.742 121.35L295.352 99.9634C295.189 99.8 295.098 99.5789 295.098 99.3485C295.098 99.1181 295.189 98.897 295.352 98.7336C295.433 98.6518 295.529 98.5869 295.636 98.5427C295.742 98.4984 295.856 98.4756 295.971 98.4756C296.086 98.4756 296.2 98.4984 296.307 98.5427C296.413 98.5869 296.509 98.6518 296.591 98.7336L317.972 120.111C318.095 120.233 318.179 120.389 318.213 120.559C318.247 120.729 318.23 120.905 318.163 121.065C318.097 121.225 317.984 121.362 317.84 121.458C317.695 121.553 317.526 121.604 317.352 121.603V121.603Z" fill="#E0E0E0"/>
<path d="M360.132 92.0625H189.038L210.419 99.3542H360.132V92.0625Z" fill="#E0E0E0"/>
<path d="M360.132 100.226H210.419C210.324 100.225 210.229 100.207 210.14 100.173L188.75 92.8904C188.552 92.8253 188.383 92.6912 188.275 92.5124C188.167 92.3336 188.127 92.122 188.162 91.9161C188.197 91.7102 188.305 91.5237 188.465 91.3903C188.626 91.257 188.829 91.1858 189.038 91.1896H360.132C360.363 91.1896 360.585 91.2815 360.749 91.4451C360.913 91.6086 361.004 91.8305 361.004 92.0618V99.3535C361.004 99.5848 360.913 99.8067 360.749 99.9702C360.585 100.134 360.363 100.226 360.132 100.226V100.226ZM210.568 98.4813H359.26V92.934H194.298L210.568 98.4813Z" fill="#E0E0E0"/>
<path d="M280.139 129.349H295.972V95.7075H280.139V129.349Z" fill="#E0E0E0"/>
<path d="M280.128 95.708H272.766V129.349H280.128V95.708Z" fill="#F5F5F5"/>
<path d="M298.326 285.553H329.503V270.411H298.326V285.553Z" fill="#E0E0E0"/>
<path d="M298.327 270.42H283.819V285.561H298.327V270.42Z" fill="#F5F5F5"/>
<path d="M338.742 129.646C338.511 129.646 338.289 129.554 338.125 129.39C337.962 129.227 337.87 129.005 337.87 128.774V95.7081C337.87 95.4768 337.962 95.255 338.125 95.0914C338.289 94.9278 338.511 94.8359 338.742 94.8359C338.973 94.8359 339.195 94.9278 339.359 95.0914C339.522 95.255 339.614 95.4768 339.614 95.7081V128.774C339.614 129.005 339.522 129.227 339.359 129.39C339.195 129.554 338.973 129.646 338.742 129.646Z" fill="#E0E0E0"/>
<path d="M338.742 133.658C338.172 133.658 337.616 133.489 337.142 133.173C336.669 132.856 336.3 132.407 336.082 131.881C335.864 131.355 335.807 130.776 335.918 130.218C336.029 129.659 336.303 129.146 336.706 128.744C337.109 128.341 337.622 128.067 338.18 127.956C338.738 127.845 339.317 127.902 339.843 128.12C340.369 128.337 340.819 128.706 341.135 129.18C341.451 129.653 341.62 130.21 341.62 130.779C341.62 131.157 341.546 131.532 341.401 131.881C341.257 132.23 341.044 132.547 340.777 132.815C340.51 133.082 340.192 133.294 339.843 133.439C339.494 133.583 339.12 133.658 338.742 133.658ZM338.742 129.645C338.517 129.645 338.298 129.712 338.112 129.836C337.925 129.961 337.78 130.138 337.694 130.345C337.608 130.552 337.586 130.78 337.629 131C337.673 131.22 337.781 131.422 337.94 131.581C338.098 131.74 338.3 131.848 338.52 131.891C338.74 131.935 338.968 131.913 339.176 131.827C339.383 131.741 339.56 131.596 339.684 131.409C339.809 131.223 339.876 131.003 339.876 130.779C339.876 130.63 339.846 130.483 339.789 130.345C339.732 130.208 339.649 130.083 339.543 129.977C339.438 129.872 339.313 129.788 339.176 129.731C339.038 129.674 338.89 129.645 338.742 129.645V129.645Z" fill="#E0E0E0"/>
<path d="M213.106 147.003C212.875 147.003 212.653 146.911 212.489 146.747C212.326 146.584 212.234 146.362 212.234 146.131V95.7081C212.234 95.4768 212.326 95.255 212.489 95.0914C212.653 94.9278 212.875 94.8359 213.106 94.8359C213.338 94.8359 213.559 94.9278 213.723 95.0914C213.887 95.255 213.979 95.4768 213.979 95.7081V146.131C213.979 146.362 213.887 146.584 213.723 146.747C213.559 146.911 213.338 147.003 213.106 147.003Z" fill="#E0E0E0"/>
<path d="M221.298 152.226C221.09 152.229 220.888 152.157 220.728 152.025C220.568 151.892 220.461 151.707 220.425 151.502C219.78 150.49 214.101 147.141 213.063 147.001C212.086 147.132 206.407 150.49 205.761 151.502C205.741 151.733 205.631 151.947 205.453 152.097C205.276 152.247 205.046 152.32 204.815 152.3C204.583 152.28 204.369 152.169 204.219 151.992C204.07 151.815 203.997 151.585 204.016 151.354C204.016 149.391 211.929 145.248 213.071 145.248C214.214 145.248 222.135 149.382 222.135 151.354C222.135 151.579 222.048 151.796 221.892 151.958C221.736 152.121 221.523 152.217 221.298 152.226Z" fill="#E0E0E0"/>
<path d="M230.737 215.269L243.534 202.474L240.804 197.24C241.039 196.717 241.257 196.194 241.458 195.653L247.067 193.909V175.836L241.458 174.092C241.249 173.56 241.039 173.028 240.804 172.505L243.525 167.271L230.737 154.502L225.503 157.223C224.979 156.988 224.456 156.77 223.924 156.569L222.179 150.961H204.06L202.316 156.569C201.784 156.77 201.26 156.988 200.737 157.223L195.503 154.502L182.758 167.289L185.488 172.522C185.244 173.045 185.034 173.577 184.825 174.109L179.216 175.854V193.943L184.825 195.688C185.034 196.229 185.244 196.752 185.479 197.275L182.758 202.509L195.555 215.304L200.789 212.574C201.312 212.809 201.845 213.027 202.377 213.228L204.121 218.836H222.223L223.967 213.228C224.499 213.027 225.023 212.809 225.546 212.574L230.737 215.269ZM222.668 194.397C220.784 196.281 218.384 197.564 215.771 198.085C213.158 198.605 210.45 198.338 207.988 197.319C205.527 196.3 203.423 194.574 201.942 192.359C200.462 190.145 199.672 187.541 199.672 184.877C199.672 182.213 200.462 179.609 201.942 177.394C203.423 175.18 205.527 173.453 207.988 172.434C210.45 171.415 213.158 171.149 215.771 171.669C218.384 172.189 220.784 173.473 222.668 175.357C223.917 176.608 224.908 178.094 225.583 179.729C226.258 181.364 226.603 183.115 226.6 184.884C226.597 186.653 226.245 188.403 225.564 190.036C224.883 191.668 223.887 193.15 222.633 194.397H222.668Z" fill="#E0E0E0"/>
<path d="M198.46 324.952C291.873 324.952 367.6 320.531 367.6 315.078C367.6 309.626 291.873 305.205 198.46 305.205C105.046 305.205 29.3198 309.626 29.3198 315.078C29.3198 320.531 105.046 324.952 198.46 324.952Z" fill="#F5F5F5"/>
<path d="M133.809 94.3311H122.922C122.425 94.3315 121.936 94.4622 121.504 94.7101C121.073 94.958 120.713 95.3144 120.462 95.744L115.019 105.173C114.77 105.605 114.639 106.095 114.639 106.594C114.639 107.093 114.77 107.583 115.019 108.016L120.462 117.436C120.711 117.868 121.069 118.228 121.501 118.477C121.933 118.727 122.423 118.858 122.922 118.858H133.809C134.308 118.858 134.798 118.727 135.23 118.477C135.662 118.228 136.021 117.868 136.269 117.436L141.713 108.016C141.961 107.583 142.092 107.093 142.092 106.594C142.092 106.095 141.961 105.605 141.713 105.173L136.269 95.744C136.018 95.3144 135.659 94.958 135.227 94.7101C134.796 94.4622 134.307 94.3315 133.809 94.3311V94.3311Z" fill="#262E60"/>
<path opacity="0.5" d="M133.809 94.3311H122.922C122.425 94.3315 121.936 94.4622 121.504 94.7101C121.073 94.958 120.713 95.3144 120.462 95.744L115.019 105.173C114.77 105.605 114.639 106.095 114.639 106.594C114.639 107.093 114.77 107.583 115.019 108.016L120.462 117.436C120.711 117.868 121.069 118.228 121.501 118.477C121.933 118.727 122.423 118.858 122.922 118.858H133.809C134.308 118.858 134.798 118.727 135.23 118.477C135.662 118.228 136.021 117.868 136.269 117.436L141.713 108.016C141.961 107.583 142.092 107.093 142.092 106.594C142.092 106.095 141.961 105.605 141.713 105.173L136.269 95.744C136.018 95.3144 135.659 94.958 135.227 94.7101C134.796 94.4622 134.307 94.3315 133.809 94.3311V94.3311Z" fill="white"/>
<path d="M64.1174 63.0892L63.498 62.4699L68.7321 57.2367L69.3515 57.8559L64.1174 63.0892ZM73.1288 54.0793L72.5094 53.46L83.4487 42.5225L84.0681 43.133L73.1288 54.0793Z" fill="#262E60"/>
<path opacity="0.5" d="M64.1174 63.0892L63.498 62.4699L68.7321 57.2367L69.3515 57.8559L64.1174 63.0892ZM73.1288 54.0793L72.5094 53.46L83.4487 42.5225L84.0681 43.133L73.1288 54.0793Z" fill="white"/>
<path d="M202.385 126.332V86.8559L190.172 83.0269C189.736 81.8581 189.256 80.7068 188.75 79.538L194.691 68.1993L166.776 40.2885L155.435 46.237C154.292 45.7224 153.149 45.2427 151.946 44.7979L148.116 32.5869H108.607L104.786 44.7979C103.609 45.2427 102.466 45.7224 101.297 46.237L89.9565 40.2885L62.0413 68.1993L67.9907 79.538C67.476 80.6806 66.9962 81.8232 66.5601 83.0269L54.3472 86.8559V126.332L66.5601 130.152C67.005 131.321 67.4848 132.472 67.9907 133.641L62.0413 144.98L89.9565 172.891L101.297 166.942C102.431 167.457 103.574 167.937 104.786 168.381L108.607 180.592H148.09L151.919 168.381C153.088 167.937 154.231 167.457 155.409 166.942L166.749 172.891L194.665 144.98L188.715 133.641C189.221 132.507 189.71 131.356 190.146 130.152L202.385 126.332ZM157.747 106.585C157.747 112.395 156.024 118.075 152.795 122.906C149.567 127.737 144.978 131.502 139.61 133.725C134.241 135.949 128.333 136.53 122.634 135.397C116.935 134.263 111.7 131.466 107.591 127.357C103.482 123.249 100.684 118.015 99.5498 112.316C98.4162 106.618 98.998 100.711 101.222 95.3435C103.446 89.9758 107.211 85.3879 112.043 82.16C116.875 78.9321 122.555 77.2092 128.366 77.2092C136.158 77.2115 143.629 80.3072 149.139 85.8158C154.648 91.3244 157.744 98.795 157.747 106.585V106.585Z" fill="#262E60"/>
<path opacity="0.5" d="M202.385 126.332V86.8559L190.172 83.0269C189.736 81.8581 189.256 80.7068 188.75 79.538L194.691 68.1993L166.776 40.2885L155.435 46.237C154.292 45.7224 153.149 45.2427 151.946 44.7979L148.116 32.5869H108.607L104.786 44.7979C103.609 45.2427 102.466 45.7224 101.297 46.237L89.9565 40.2885L62.0413 68.1993L67.9907 79.538C67.476 80.6806 66.9962 81.8232 66.5601 83.0269L54.3472 86.8559V126.332L66.5601 130.152C67.005 131.321 67.4848 132.472 67.9907 133.641L62.0413 144.98L89.9565 172.891L101.297 166.942C102.431 167.457 103.574 167.937 104.786 168.381L108.607 180.592H148.09L151.919 168.381C153.088 167.937 154.231 167.457 155.409 166.942L166.749 172.891L194.665 144.98L188.715 133.641C189.221 132.507 189.71 131.356 190.146 130.152L202.385 126.332ZM157.747 106.585C157.747 112.395 156.024 118.075 152.795 122.906C149.567 127.737 144.978 131.502 139.61 133.725C134.241 135.949 128.333 136.53 122.634 135.397C116.935 134.263 111.7 131.466 107.591 127.357C103.482 123.249 100.684 118.015 99.5498 112.316C98.4162 106.618 98.998 100.711 101.222 95.3435C103.446 89.9758 107.211 85.3879 112.043 82.16C116.875 78.9321 122.555 77.2092 128.366 77.2092C136.158 77.2115 143.629 80.3072 149.139 85.8158C154.648 91.3244 157.744 98.795 157.747 106.585V106.585Z" fill="white"/>
<path d="M146.188 178.202H110.553C110.506 178.202 110.46 178.187 110.422 178.159C110.384 178.13 110.357 178.091 110.343 178.045L106.854 167.038C106.837 166.983 106.842 166.922 106.869 166.871C106.896 166.819 106.942 166.781 106.998 166.763C107.054 166.746 107.114 166.751 107.165 166.778C107.217 166.805 107.255 166.852 107.273 166.907L110.666 177.766H145.979L149.608 166.305C149.618 166.274 149.635 166.245 149.658 166.221C149.681 166.197 149.708 166.178 149.739 166.166L150.934 165.721C151.946 165.337 153.019 164.892 154.231 164.352L155.392 163.828C155.445 163.805 155.505 163.804 155.559 163.825C155.613 163.847 155.656 163.888 155.679 163.942C155.703 163.995 155.704 164.055 155.682 164.109C155.661 164.163 155.619 164.206 155.566 164.23L154.406 164.744C153.193 165.294 152.103 165.738 151.091 166.122L149.992 166.541L146.398 178.045C146.383 178.09 146.355 178.129 146.318 178.157C146.28 178.185 146.235 178.201 146.188 178.202V178.202ZM166.252 169.89C166.195 169.888 166.139 169.867 166.095 169.829C166.074 169.809 166.057 169.784 166.046 169.757C166.035 169.73 166.029 169.701 166.029 169.672C166.029 169.643 166.035 169.614 166.046 169.587C166.057 169.56 166.074 169.535 166.095 169.515L191.184 144.439L185.61 133.798C185.594 133.768 185.586 133.736 185.586 133.702C185.586 133.669 185.594 133.636 185.61 133.606L186.133 132.446C186.657 131.269 187.101 130.187 187.494 129.158L187.939 127.963C187.951 127.932 187.97 127.905 187.994 127.882C188.018 127.86 188.047 127.843 188.079 127.832L199.55 124.247V88.9665L188.209 85.4253C188.178 85.4207 188.148 85.4094 188.122 85.392C188.095 85.3747 188.073 85.3519 188.056 85.325C188.039 85.2982 188.029 85.268 188.025 85.2366C188.021 85.2053 188.024 85.1734 188.033 85.1433C188.043 85.1131 188.059 85.0855 188.08 85.0621C188.102 85.0388 188.128 85.0205 188.157 85.0083C188.186 84.9961 188.218 84.9905 188.249 84.9917C188.281 84.9929 188.312 85.001 188.34 85.0154L199.803 88.5914C199.846 88.6073 199.883 88.6357 199.91 88.6731C199.936 88.7105 199.951 88.755 199.951 88.8008V124.431C199.952 124.477 199.938 124.522 199.911 124.559C199.884 124.597 199.847 124.625 199.803 124.64L188.314 128.216L187.904 129.315C187.512 130.353 187.032 131.434 186.526 132.629L186.055 133.693L191.646 144.378C191.674 144.414 191.689 144.459 191.689 144.504C191.689 144.55 191.674 144.595 191.646 144.631L166.453 169.829C166.399 169.873 166.331 169.895 166.261 169.89H166.252ZM90.4713 169.89C90.4136 169.888 90.3581 169.867 90.3143 169.829L65.1209 144.631C65.0957 144.594 65.0823 144.55 65.0823 144.504C65.0823 144.459 65.0957 144.415 65.1209 144.378L70.765 133.597C70.7928 133.547 70.839 133.508 70.8942 133.49C70.9493 133.473 71.0092 133.477 71.0616 133.502C71.0868 133.515 71.1091 133.534 71.1272 133.556C71.1452 133.578 71.1587 133.604 71.1668 133.632C71.1749 133.659 71.1775 133.688 71.1744 133.717C71.1713 133.745 71.1626 133.773 71.1488 133.798L65.5832 144.439L90.6633 169.515C90.6844 169.535 90.7012 169.56 90.7126 169.587C90.7241 169.614 90.73 169.643 90.73 169.672C90.73 169.701 90.7241 169.73 90.7126 169.757C90.7012 169.784 90.6844 169.809 90.6633 169.829C90.6385 169.851 90.6095 169.868 90.578 169.879C90.5465 169.889 90.5131 169.893 90.4801 169.89H90.4713ZM105.301 165.974H105.223C104.35 165.634 103.4 165.233 102.344 164.762C102.313 164.754 102.284 164.74 102.26 164.719C102.235 164.699 102.215 164.674 102.201 164.646C102.187 164.617 102.179 164.586 102.179 164.554C102.178 164.522 102.185 164.491 102.197 164.461C102.21 164.432 102.23 164.406 102.254 164.386C102.278 164.365 102.306 164.349 102.336 164.34C102.367 164.332 102.399 164.33 102.431 164.335C102.462 164.34 102.492 164.351 102.518 164.369C103.565 164.831 104.499 165.241 105.38 165.564C105.407 165.575 105.432 165.59 105.453 165.611C105.474 165.631 105.49 165.655 105.502 165.682C105.513 165.709 105.519 165.738 105.519 165.767C105.519 165.796 105.513 165.825 105.502 165.852C105.484 165.893 105.452 165.927 105.413 165.949C105.374 165.971 105.328 165.98 105.284 165.974H105.301ZM128.384 138.813C119.834 138.797 111.64 135.39 105.6 129.34C99.56 123.289 96.1678 115.09 96.1678 106.542C96.1678 106.484 96.1908 106.428 96.2317 106.387C96.2726 106.346 96.328 106.323 96.3859 106.323C96.4437 106.323 96.4992 106.346 96.5401 106.387C96.581 106.428 96.604 106.484 96.604 106.542C96.604 112.826 98.4678 118.969 101.96 124.195C105.452 129.42 110.415 133.493 116.222 135.897C122.029 138.302 128.419 138.932 134.584 137.706C140.748 136.48 146.411 133.453 150.855 129.01C155.3 124.566 158.326 118.904 159.553 112.74C160.779 106.577 160.15 100.188 157.744 94.3819C155.339 88.5758 151.266 83.6133 146.04 80.1219C140.813 76.6304 134.669 74.7669 128.384 74.7669C128.326 74.7669 128.27 74.7439 128.229 74.703C128.189 74.6621 128.166 74.6067 128.166 74.5488C128.166 74.491 128.189 74.4355 128.229 74.3947C128.27 74.3538 128.326 74.3308 128.384 74.3308C136.93 74.3308 145.127 77.7253 151.17 83.7676C157.213 89.81 160.608 98.0051 160.608 106.55C160.608 115.095 157.213 123.291 151.17 129.333C145.127 135.375 136.93 138.77 128.384 138.77V138.813ZM69.0639 129.454C69.0184 129.453 68.9744 129.438 68.9372 129.411C68.9001 129.385 68.8713 129.349 68.8545 129.306L68.4445 128.216L56.9208 124.614C56.8771 124.599 56.8392 124.571 56.8126 124.533C56.7859 124.496 56.7719 124.45 56.7725 124.404V88.7746C56.7732 88.7288 56.7877 88.6843 56.8142 88.6469C56.8407 88.6096 56.8778 88.5811 56.9208 88.5653L67.9385 85.1288C67.9941 85.1119 68.054 85.1169 68.1059 85.1429C68.1579 85.1689 68.1979 85.2137 68.2177 85.2683C68.232 85.3249 68.2247 85.3849 68.1973 85.4364C68.1699 85.488 68.1243 85.5276 68.0694 85.5474L57.1825 88.9665V124.274L68.6539 127.858C68.6846 127.868 68.7125 127.885 68.7353 127.908C68.7581 127.931 68.775 127.958 68.7847 127.989L69.2384 129.184C69.2585 129.237 69.2569 129.296 69.2341 129.349C69.2113 129.401 69.169 129.442 69.1162 129.463L69.0639 129.454ZM69.0639 84.0995H68.9854C68.932 84.0764 68.8895 84.0336 68.8668 83.98C68.844 83.9265 68.8428 83.8662 68.8632 83.8117C69.282 82.6953 69.7356 81.6312 70.2154 80.5496C70.24 80.4979 70.284 80.4579 70.3379 80.4383C70.3917 80.4187 70.4511 80.4211 70.5033 80.445C70.5297 80.4564 70.5536 80.4728 70.5736 80.4935C70.5936 80.5141 70.6093 80.5385 70.6199 80.5653C70.6304 80.5921 70.6355 80.6206 70.635 80.6494C70.6344 80.6781 70.6282 80.7065 70.6167 80.7328C70.1281 81.7969 69.692 82.861 69.2733 83.9687C69.258 84.0162 69.2275 84.0573 69.1865 84.0856C69.1455 84.114 69.0962 84.1281 69.0464 84.1257L69.0639 84.0995ZM186.124 79.1192H186.02C185.995 79.1055 185.972 79.087 185.954 79.0646C185.936 79.0423 185.923 79.0166 185.915 78.9891C185.906 78.9615 185.904 78.9326 185.907 78.9041C185.91 78.8755 185.919 78.8478 185.933 78.8227L191.167 68.7486L186.979 64.5446C186.954 64.5258 186.934 64.5019 186.919 64.4745C186.904 64.4471 186.895 64.4168 186.893 64.3856C186.89 64.3544 186.895 64.3232 186.906 64.2939C186.917 64.2646 186.934 64.238 186.956 64.216C186.978 64.1939 187.005 64.1768 187.034 64.1659C187.063 64.1549 187.095 64.1504 187.126 64.1526C187.157 64.1548 187.187 64.1637 187.215 64.1787C187.242 64.1936 187.266 64.2143 187.285 64.2393L191.646 68.6004C191.674 68.6367 191.689 68.6812 191.689 68.7268C191.689 68.7725 191.674 68.8169 191.646 68.8533L186.299 79.0669C186.276 79.0949 186.246 79.1167 186.213 79.1304C186.179 79.1441 186.143 79.1493 186.107 79.1454L186.124 79.1192ZM65.2779 68.9056C65.2196 68.9062 65.1634 68.8843 65.1209 68.8446C65.0829 68.8028 65.0618 68.7484 65.0618 68.6919C65.0618 68.6355 65.0829 68.5811 65.1209 68.5393L90.2881 43.3586C90.3239 43.3296 90.3686 43.3137 90.4146 43.3137C90.4607 43.3137 90.5054 43.3296 90.5411 43.3586L101.227 48.9495L102.292 48.4785C103.321 48.0162 104.263 47.6063 105.17 47.2661C105.197 47.2548 105.226 47.249 105.255 47.249C105.284 47.2491 105.313 47.255 105.34 47.2664C105.367 47.2777 105.391 47.2944 105.412 47.3153C105.432 47.3362 105.448 47.361 105.458 47.3882C105.478 47.4426 105.475 47.5025 105.451 47.5548C105.426 47.6072 105.382 47.6476 105.327 47.6673C104.455 48.0249 103.496 48.4174 102.475 48.871L101.315 49.3943C101.284 49.4072 101.252 49.4139 101.219 49.4139C101.186 49.4139 101.153 49.4072 101.123 49.3943L90.4801 43.8209L65.4349 68.9056C65.3846 68.926 65.3282 68.926 65.2779 68.9056V68.9056ZM183.499 60.9511C183.44 60.9516 183.384 60.9298 183.342 60.89L166.183 43.7773L155.54 49.3507C155.512 49.3659 155.48 49.3739 155.448 49.3739C155.416 49.3739 155.385 49.3659 155.357 49.3507L154.196 48.8274C153.001 48.2953 151.92 47.8505 150.899 47.458L149.704 47.0132C149.673 47.0008 149.646 46.982 149.623 46.9578C149.6 46.9337 149.583 46.905 149.573 46.8736L145.988 35.4128H110.71L107.622 45.2775C107.614 45.3048 107.6 45.3303 107.582 45.3523C107.564 45.3743 107.542 45.3924 107.517 45.4055C107.491 45.4185 107.464 45.4263 107.435 45.4283C107.407 45.4303 107.378 45.4264 107.351 45.417C107.297 45.399 107.253 45.3607 107.227 45.3102C107.2 45.2597 107.195 45.201 107.212 45.1466L110.352 35.1336C110.367 35.09 110.395 35.0521 110.433 35.0255C110.47 34.9988 110.515 34.9848 110.562 34.9854H146.197C146.243 34.9861 146.287 35.0006 146.325 35.0271C146.362 35.0535 146.391 35.0907 146.406 35.1336L150 46.6468L151.1 47.0655C152.129 47.4493 153.211 47.9377 154.415 48.4436L155.479 48.9146L166.183 43.3237C166.219 43.2961 166.263 43.2812 166.309 43.2812C166.355 43.2812 166.399 43.2961 166.436 43.3237L183.63 60.5935C183.651 60.6138 183.667 60.6382 183.679 60.6652C183.69 60.6921 183.696 60.7212 183.696 60.7505C183.696 60.7798 183.69 60.8088 183.679 60.8358C183.667 60.8627 183.651 60.8871 183.63 60.9075C183.594 60.9415 183.548 60.963 183.499 60.9685V60.9511Z" fill="#FAFAFA"/>
<path d="M253.714 113.73C256.444 117.219 259 120.708 261.495 124.31C263.99 127.913 266.363 131.593 268.605 135.431C269.172 136.382 269.712 137.376 270.262 138.353C271.055 139.833 271.522 141.466 271.632 143.141C271.774 145.685 271.527 148.235 270.899 150.703C269.813 155.142 268.166 159.425 265.996 163.446L261.504 161.702C262.396 157.675 263.039 153.597 263.432 149.491C263.605 147.718 263.547 145.929 263.257 144.171C263.186 143.682 263.004 143.217 262.725 142.81C262.149 141.938 261.591 141.066 260.98 140.193C258.616 136.704 256.113 133.294 253.591 129.866L246.011 119.592L253.714 113.73Z" fill="#FF8B7B"/>
<path d="M261.191 161.194L258.871 165.347L266.966 166.542C266.966 166.542 267.838 163.052 265.806 160.645L261.191 161.194Z" fill="#FF8B7B"/>
<path d="M257.648 170.869L264.391 171.549L266.965 166.542L258.869 165.347L257.648 170.869Z" fill="#FF8B7B"/>
<path d="M279.589 195.638L281.996 182.825C282.276 181.339 283.134 180.024 284.381 179.169C285.629 178.314 287.165 177.988 288.652 178.264L308.865 182.049C307.659 178.012 305.514 174.317 302.607 171.266C299.699 168.216 296.111 165.897 292.135 164.498C288.159 163.1 283.909 162.662 279.732 163.22C275.555 163.778 271.569 165.317 268.1 167.71L176.398 113.441C176.875 107.703 175.484 101.965 172.433 97.0825C169.383 92.1994 164.835 88.4328 159.47 86.3441C154.104 84.2553 148.206 83.9562 142.656 85.4913C137.106 87.0265 132.201 90.3137 128.672 94.863L148.884 98.6484C150.369 98.9341 151.681 99.7947 152.534 101.043C153.387 102.291 153.712 103.825 153.438 105.312L151.03 118.134C150.749 119.619 149.891 120.932 148.644 121.787C147.396 122.642 145.862 122.968 144.374 122.695L124.162 118.901C125.373 122.963 127.534 126.679 130.466 129.741C133.398 132.803 137.016 135.123 141.022 136.51C145.029 137.896 149.308 138.309 153.505 137.715C157.703 137.121 161.699 135.536 165.163 133.092L256.681 187.256C256.153 193.006 257.503 198.772 260.529 203.69C263.554 208.608 268.093 212.413 273.463 214.536C278.834 216.658 284.748 216.982 290.319 215.461C295.89 213.939 300.817 210.653 304.363 206.096L284.151 202.302C282.665 202.018 281.351 201.158 280.496 199.91C279.642 198.662 279.315 197.126 279.589 195.638V195.638Z" fill="#262E60"/>
<path d="M256.75 167.382L182.399 123.383C181.047 122.583 179.303 123.03 178.503 124.382L175.473 129.501C174.673 130.852 175.12 132.596 176.472 133.396L250.822 177.395C252.174 178.194 253.918 177.747 254.718 176.396L257.748 171.277C258.548 169.925 258.101 168.182 256.75 167.382Z" fill="#262E60"/>
<path opacity="0.2" d="M256.75 167.382L182.399 123.383C181.047 122.583 179.303 123.03 178.503 124.382L175.473 129.501C174.673 130.852 175.12 132.596 176.472 133.396L250.822 177.395C252.174 178.194 253.918 177.747 254.718 176.396L257.748 171.277C258.548 169.925 258.101 168.182 256.75 167.382Z" fill="white"/>
<path d="M222.659 86.6212C222.572 87.1359 222.24 87.4935 221.909 87.4935C221.577 87.4935 221.368 86.9788 221.446 86.4729C221.525 85.9669 221.865 85.6005 222.196 85.6441C222.528 85.6878 222.737 86.1152 222.659 86.6212Z" fill="#263238"/>
<path d="M222.283 87.5107C221.43 88.9764 220.379 90.3178 219.16 91.4974C219.468 91.8066 219.84 92.0449 220.25 92.1956C220.66 92.3463 221.098 92.4057 221.533 92.3697L222.283 87.5107Z" fill="#FF5652"/>
<path d="M224.954 84.084C224.915 84.0844 224.876 84.0769 224.84 84.0619C224.804 84.0469 224.772 84.0248 224.745 83.9968C224.482 83.7206 224.158 83.5109 223.798 83.385C223.439 83.2591 223.054 83.2206 222.677 83.2727C222.638 83.2817 222.597 83.2827 222.557 83.2757C222.517 83.2686 222.479 83.2537 222.444 83.2318C222.41 83.2099 222.381 83.1814 222.358 83.148C222.335 83.1146 222.319 83.0769 222.311 83.0372C222.302 82.9982 222.301 82.9578 222.308 82.9184C222.315 82.8791 222.33 82.8415 222.352 82.8081C222.374 82.7747 222.403 82.7461 222.436 82.724C222.469 82.7019 222.507 82.6868 222.546 82.6795C223.02 82.6043 223.506 82.6443 223.961 82.7961C224.417 82.948 224.829 83.2072 225.163 83.5519C225.218 83.6114 225.248 83.6892 225.248 83.77C225.248 83.8507 225.218 83.9285 225.163 83.9881C225.107 84.0434 225.033 84.0773 224.954 84.084Z" fill="#263238"/>
<path d="M239.696 92.2461C238.824 96.9386 237.864 105.53 241.144 108.652C241.144 108.652 239.862 113.406 231.147 113.406C221.551 113.406 226.567 108.652 226.567 108.652C231.801 107.405 231.662 103.524 230.754 99.9303L239.696 92.2461Z" fill="#FF8B7B"/>
<path d="M245.567 112.178C245.461 112.024 245.381 111.853 245.331 111.672C244.599 108.889 241.519 106.717 237.524 106.604C233.31 106.499 228.556 107.005 225.747 109.325C224.508 110.346 225.878 111.838 225.878 111.838L245.567 112.178Z" fill="#262E60"/>
<path opacity="0.5" d="M245.567 112.178C245.461 112.024 245.381 111.853 245.331 111.672C244.599 108.889 241.519 106.717 237.524 106.604C233.31 106.499 228.556 107.005 225.747 109.325C224.508 110.346 225.878 111.838 225.878 111.838L245.567 112.178Z" fill="white"/>
<path d="M276.37 287.684H276.309C276.18 287.667 276.061 287.609 275.967 287.52C275.873 287.431 275.81 287.314 275.785 287.187C275.755 287.088 275.746 286.984 275.76 286.882C275.773 286.78 275.809 286.681 275.864 286.594C276.352 285.765 278.481 285.329 278.542 285.312C278.571 285.306 278.602 285.308 278.629 285.319C278.657 285.33 278.681 285.349 278.699 285.373C278.714 285.398 278.721 285.426 278.721 285.456C278.721 285.485 278.714 285.513 278.699 285.538C278.376 286.088 277.181 287.684 276.37 287.684ZM278.245 285.687C277.547 285.87 276.413 286.245 276.126 286.742C276.098 286.795 276.084 286.853 276.084 286.912C276.084 286.972 276.098 287.03 276.126 287.082C276.204 287.353 276.344 287.37 276.379 287.379C276.771 287.431 277.696 286.489 278.245 285.687V285.687Z" fill="#262E60"/>
<path d="M277.531 285.719C276.737 285.719 275.847 285.571 275.577 285.187C275.513 285.092 275.483 284.978 275.493 284.864C275.502 284.75 275.55 284.642 275.629 284.559C275.7 284.468 275.788 284.391 275.888 284.335C275.988 284.278 276.099 284.241 276.213 284.227C277.173 284.123 278.612 285.283 278.673 285.335C278.696 285.352 278.713 285.375 278.722 285.401C278.732 285.427 278.735 285.455 278.729 285.483C278.724 285.51 278.711 285.535 278.692 285.555C278.672 285.576 278.648 285.59 278.621 285.597C278.265 285.687 277.898 285.728 277.531 285.719ZM276.362 284.524H276.248C276.174 284.529 276.102 284.55 276.037 284.586C275.972 284.622 275.916 284.673 275.873 284.733C275.751 284.89 275.803 284.969 275.83 284.995C276.074 285.353 277.408 285.492 278.22 285.361C277.682 284.928 277.042 284.64 276.362 284.524V284.524Z" fill="#262E60"/>
<path d="M213.011 308.859C212.191 308.859 211.397 308.746 211.126 308.379C211.058 308.282 211.021 308.167 211.021 308.048C211.021 307.929 211.058 307.813 211.126 307.716C211.18 307.627 211.251 307.549 211.334 307.488C211.418 307.427 211.514 307.383 211.615 307.359C212.679 307.071 214.921 308.344 215.017 308.406C215.044 308.421 215.065 308.445 215.077 308.473C215.09 308.501 215.093 308.532 215.087 308.563C215.081 308.593 215.066 308.62 215.044 308.642C215.022 308.664 214.995 308.678 214.965 308.685C214.32 308.798 213.666 308.856 213.011 308.859V308.859ZM211.99 307.62C211.895 307.607 211.798 307.607 211.702 307.62C211.641 307.632 211.583 307.657 211.532 307.693C211.481 307.73 211.438 307.776 211.406 307.83C211.292 308.022 211.336 308.118 211.406 308.17C211.702 308.58 213.325 308.589 214.52 308.423C213.737 307.993 212.878 307.721 211.99 307.62V307.62Z" fill="#262E60"/>
<path d="M214.947 308.687H214.886C214.11 308.338 212.574 306.942 212.696 306.227C212.696 306.052 212.845 305.843 213.263 305.799C213.419 305.78 213.577 305.794 213.727 305.839C213.877 305.884 214.016 305.96 214.136 306.061C214.956 306.733 215.121 308.46 215.13 308.53C215.134 308.556 215.13 308.584 215.119 308.608C215.108 308.633 215.091 308.654 215.069 308.669C215.032 308.691 214.988 308.697 214.947 308.687V308.687ZM213.385 306.07H213.29C213.019 306.07 213.002 306.201 212.993 306.236C212.923 306.672 213.97 307.762 214.738 308.233C214.658 307.502 214.353 306.813 213.865 306.262C213.729 306.153 213.56 306.092 213.385 306.087V306.07Z" fill="#262E60"/>
<path d="M221.996 308.539H215.584L214.947 293.703H221.359L221.996 308.539Z" fill="#FF8B7B"/>
<path d="M284.308 280.897L279.108 284.648L266.843 275.193L272.042 271.451L284.308 280.897Z" fill="#FF8B7B"/>
<path d="M278.367 284.597L283.357 279.364C283.444 279.272 283.56 279.214 283.686 279.198C283.811 279.182 283.938 279.21 284.046 279.277L289.036 282.303C289.155 282.379 289.256 282.48 289.332 282.6C289.407 282.719 289.455 282.854 289.472 282.994C289.488 283.135 289.474 283.277 289.428 283.411C289.383 283.545 289.309 283.667 289.21 283.769C287.465 285.557 286.48 286.333 284.29 288.618C282.938 290.022 279.274 294.959 277.407 296.904C275.54 298.849 273.386 297.253 273.97 296.294C276.587 291.985 277.861 287.711 277.931 285.583C277.956 285.213 278.11 284.864 278.367 284.597V284.597Z" fill="#263238"/>
<path d="M215.628 307.797H222.607C222.735 307.796 222.859 307.838 222.959 307.918C223.059 307.997 223.129 308.108 223.156 308.233L224.421 313.929C224.452 314.066 224.45 314.208 224.418 314.345C224.385 314.482 224.322 314.61 224.233 314.719C224.144 314.828 224.032 314.916 223.904 314.975C223.777 315.035 223.637 315.064 223.497 315.062C220.976 315.062 217.329 314.879 214.154 314.879C210.438 314.879 207.236 315.08 202.883 315.08C200.266 315.08 199.525 312.42 200.624 312.175C205.64 311.085 209.731 310.963 214.067 308.294C214.53 307.985 215.071 307.813 215.628 307.797V307.797Z" fill="#263238"/>
<path d="M244.747 122.181C245.619 123.795 246.605 125.356 247.556 126.813C249.196 129.334 250.783 131.514 251.917 133.014C252.938 134.366 253.592 135.16 253.592 135.16L266.503 126.359C266.503 126.359 258.652 111.078 252.606 110.101C246.387 109.116 240.69 114.942 244.747 122.181Z" fill="#262E60"/>
<path opacity="0.5" d="M244.747 122.181C245.619 123.795 246.605 125.356 247.556 126.813C249.196 129.334 250.783 131.514 251.917 133.014C252.938 134.366 253.592 135.16 253.592 135.16L266.503 126.359C266.503 126.359 258.652 111.078 252.606 110.101C246.387 109.116 240.69 114.942 244.747 122.181Z" fill="black"/>
<path d="M247.556 126.813C249.196 129.334 250.784 131.515 251.918 133.015C251.787 130.014 251.168 125.165 248.839 121.467C247.992 122.304 247.652 124.467 247.556 126.813Z" fill="#262E60"/>
<path opacity="0.6" d="M247.556 126.813C249.196 129.334 250.784 131.515 251.918 133.015C251.787 130.014 251.168 125.165 248.839 121.467C247.992 122.304 247.652 124.467 247.556 126.813Z" fill="black"/>
<path d="M213.561 131.322C213.561 133.502 213.613 135.901 213.735 138.543C214.049 145.73 214.834 154.688 216.352 165.818H250.627C250.862 160.584 247.556 134.889 252.633 110.101C248.842 109.372 245.007 108.888 241.153 108.653C236.301 108.374 231.437 108.374 226.585 108.653C223.259 108.982 219.964 109.565 216.727 110.397C216.727 110.397 213.552 113.999 213.561 131.322Z" fill="#262E60"/>
<path opacity="0.5" d="M213.561 131.322C213.561 133.502 213.613 135.901 213.735 138.543C214.049 145.73 214.834 154.688 216.352 165.818H250.627C250.862 160.584 247.556 134.889 252.633 110.101C248.842 109.372 245.007 108.888 241.153 108.653C236.301 108.374 231.437 108.374 226.585 108.653C223.259 108.982 219.964 109.565 216.727 110.397C216.727 110.397 213.552 113.999 213.561 131.322Z" fill="black"/>
<path d="M213.561 131.322C213.561 133.503 213.613 135.901 213.735 138.544C217.757 134.619 218.027 126.604 218.027 126.604L213.561 131.322Z" fill="#262E60"/>
<path opacity="0.6" d="M213.561 131.322C213.561 133.503 213.613 135.901 213.735 138.544C217.757 134.619 218.027 126.604 218.027 126.604L213.561 131.322Z" fill="black"/>
<path d="M220.705 121.369C220.046 122.472 219.317 123.533 218.524 124.544C217.8 125.486 217.076 126.376 216.335 127.256C214.861 129.001 213.282 130.684 211.676 132.315C208.388 135.654 204.746 138.625 200.816 141.177C199.758 141.839 198.666 142.444 197.544 142.991L197.1 143.2L196.881 143.305L196.611 143.419C196.18 143.601 195.737 143.752 195.285 143.872L194.648 144.038L194.038 144.142C193.648 144.21 193.255 144.254 192.86 144.273C190.234 144.36 187.613 143.991 185.113 143.183C180.695 141.808 176.483 139.84 172.595 137.331L174.663 132.969C178.63 134.157 182.672 135.078 186.762 135.726C188.493 136.016 190.258 136.04 191.996 135.795C192.145 135.771 192.291 135.733 192.432 135.682L192.624 135.63L192.764 135.569C192.877 135.569 192.904 135.481 192.973 135.455L193.497 135.15C194.3 134.683 195.077 134.174 195.826 133.624C199.045 131.202 202.038 128.493 204.767 125.53C206.189 124.038 207.559 122.477 208.894 120.924C209.557 120.139 210.202 119.354 210.804 118.561C211.406 117.767 212.025 116.956 212.383 116.397L220.705 121.369Z" fill="#FF8B7B"/>
<path d="M175.604 134.148L171.347 129.089L168.451 136.485C168.451 136.485 172.124 138.23 174.985 137.218L175.604 134.148Z" fill="#FF8B7B"/>
<path d="M165.101 127.982L163.915 133.887L168.451 136.478L171.347 129.081L165.101 127.982Z" fill="#FF8B7B"/>
<path d="M225.843 117.897C225.084 124.003 211.231 136.868 211.231 136.868L198.756 126.977C201.892 122.343 205.558 118.089 209.678 114.304C218.716 106.471 226.759 110.605 225.843 117.897Z" fill="#262E60"/>
<path opacity="0.5" d="M225.843 117.897C225.084 124.003 211.231 136.868 211.231 136.868L198.756 126.977C201.892 122.343 205.558 118.089 209.678 114.304C218.716 106.471 226.759 110.605 225.843 117.897Z" fill="black"/>
<path d="M215.035 159.111C227.483 159.111 230.327 145.033 230.981 138.989C229.409 128.766 225.767 118.972 220.277 110.206C220.21 110.099 220.169 109.976 220.16 109.85C220.15 109.724 220.172 109.597 220.223 109.481C220.273 109.365 220.352 109.263 220.451 109.184C220.55 109.105 220.668 109.052 220.792 109.028L223.523 108.522C223.678 108.497 223.837 108.517 223.981 108.581C224.125 108.644 224.248 108.748 224.334 108.88C231.827 120.873 234.279 131.043 235.073 136.276H237.306C239.591 131.305 244.625 119.975 244.215 109.36C244.207 109.246 244.225 109.132 244.267 109.026C244.309 108.92 244.374 108.824 244.458 108.747C244.541 108.669 244.641 108.611 244.75 108.577C244.859 108.542 244.974 108.533 245.087 108.549L248.018 108.836C248.207 108.849 248.384 108.931 248.516 109.066C248.648 109.201 248.725 109.38 248.734 109.569C249.161 119.8 243.377 133.991 241.153 138.5C241.912 155.194 251.202 158.081 251.202 158.081C251.431 162.232 251.247 166.396 250.653 170.51C230.981 173.703 221.176 171.758 215.567 169.438C216.003 165.242 215.218 162.303 215.035 159.111Z" fill="#262E60"/>
<path opacity="0.3" d="M215.035 159.111C227.483 159.111 230.327 145.033 230.981 138.989C229.409 128.766 225.767 118.972 220.277 110.206C220.21 110.099 220.169 109.976 220.16 109.85C220.15 109.724 220.172 109.597 220.223 109.481C220.273 109.365 220.352 109.263 220.451 109.184C220.55 109.105 220.668 109.052 220.792 109.028L223.523 108.522C223.678 108.497 223.837 108.517 223.981 108.581C224.125 108.644 224.248 108.748 224.334 108.88C231.827 120.873 234.279 131.043 235.073 136.276H237.306C239.591 131.305 244.625 119.975 244.215 109.36C244.207 109.246 244.225 109.132 244.267 109.026C244.309 108.92 244.374 108.824 244.458 108.747C244.541 108.669 244.641 108.611 244.75 108.577C244.859 108.542 244.974 108.533 245.087 108.549L248.018 108.836C248.207 108.849 248.384 108.931 248.516 109.066C248.648 109.201 248.725 109.38 248.734 109.569C249.161 119.8 243.377 133.991 241.153 138.5C241.912 155.194 251.202 158.081 251.202 158.081C251.431 162.232 251.247 166.396 250.653 170.51C230.981 173.703 221.176 171.758 215.567 169.438C216.003 165.242 215.218 162.303 215.035 159.111Z" fill="black"/>
<path d="M214.947 293.703L215.279 301.352H221.691L221.359 293.703H214.947Z" fill="#FF5652"/>
<path d="M272.052 271.451L266.853 275.202L273.178 280.069L278.377 276.318L272.052 271.451Z" fill="#FF5652"/>
<path d="M239.862 88.2081C238.492 94.4182 238.004 98.1251 234.331 100.846C228.809 104.946 221.516 100.846 221.002 94.3659C220.539 88.5221 222.851 79.3464 229.385 77.7939C230.823 77.4611 232.322 77.4987 233.742 77.9031C235.162 78.3075 236.455 79.0654 237.502 80.106C238.549 81.1465 239.315 82.4357 239.727 83.8527C240.14 85.2697 240.186 86.7683 239.862 88.2081Z" fill="#FF8B7B"/>
<path d="M245.402 78.5705C250.854 78.7188 248.612 81.5883 245.881 83.167C245.881 83.167 249.031 84.676 247.408 88.2782C244.948 93.747 240.237 99.7565 235.431 99.425C229.446 99.0151 227.745 92.5084 227.963 86.0889C224.805 83.1147 224.273 81.4749 223.785 77.8989C222.799 70.8078 227.248 66.909 245.402 78.5705Z" fill="#263238"/>
<path d="M238.379 66.6208C242.112 67.5781 245.311 69.9783 247.274 73.2936C249.237 76.609 249.803 80.5681 248.847 84.3005L220.679 77.1135C221.151 75.262 221.984 73.5217 223.129 71.992C224.275 70.4624 225.71 69.1735 227.354 68.199C228.998 67.2246 230.818 66.5836 232.709 66.3128C234.601 66.042 236.528 66.1467 238.379 66.6208V66.6208Z" fill="#262E60"/>
<path opacity="0.5" d="M238.379 66.6208C242.112 67.5781 245.311 69.9783 247.274 73.2936C249.237 76.609 249.803 80.5681 248.847 84.3005L220.679 77.1135C221.151 75.262 221.984 73.5217 223.129 71.992C224.275 70.4624 225.71 69.1735 227.354 68.199C228.998 67.2246 230.818 66.5836 232.709 66.3128C234.601 66.042 236.528 66.1467 238.379 66.6208V66.6208Z" fill="white"/>
<path d="M243.944 84.3182C243.749 84.321 243.557 84.2785 243.381 84.1941C243.205 84.1096 243.052 83.9855 242.933 83.8315C242.813 83.6776 242.731 83.4979 242.694 83.3069C242.656 83.1159 242.663 82.9186 242.714 82.7307C243.106 81.1467 243.16 79.4979 242.873 77.8916C242.586 76.2853 241.964 74.7573 241.048 73.4068C239.088 70.4579 236.088 68.3557 232.647 67.5194C232.32 67.4361 232.039 67.2262 231.866 66.9359C231.694 66.6455 231.644 66.2985 231.727 65.9712C231.81 65.6439 232.02 65.3631 232.31 65.1905C232.601 65.0179 232.948 64.9678 233.275 65.051C237.336 66.0486 240.872 68.5402 243.176 72.0287C244.286 73.6729 245.038 75.5318 245.384 77.485C245.73 79.4383 245.661 81.4424 245.183 83.3675C245.111 83.6409 244.951 83.8828 244.726 84.0549C244.502 84.227 244.227 84.3196 243.944 84.3182V84.3182Z" fill="#262E60"/>
<path opacity="0.3" d="M243.944 84.3182C243.749 84.321 243.557 84.2785 243.381 84.1941C243.205 84.1096 243.052 83.9855 242.933 83.8315C242.813 83.6776 242.731 83.4979 242.694 83.3069C242.656 83.1159 242.663 82.9186 242.714 82.7307C243.106 81.1467 243.16 79.4979 242.873 77.8916C242.586 76.2853 241.964 74.7573 241.048 73.4068C239.088 70.4579 236.088 68.3557 232.647 67.5194C232.32 67.4361 232.039 67.2262 231.866 66.9359C231.694 66.6455 231.644 66.2985 231.727 65.9712C231.81 65.6439 232.02 65.3631 232.31 65.1905C232.601 65.0179 232.948 64.9678 233.275 65.051C237.336 66.0486 240.872 68.5402 243.176 72.0287C244.286 73.6729 245.038 75.5318 245.384 77.485C245.73 79.4383 245.661 81.4424 245.183 83.3675C245.111 83.6409 244.951 83.8828 244.726 84.0549C244.502 84.227 244.227 84.3196 243.944 84.3182V84.3182Z" fill="white"/>
<path d="M216.779 77.4896L249.929 85.95C250.273 86.0374 250.639 85.9845 250.944 85.803C251.25 85.6215 251.472 85.3262 251.56 84.9819C251.648 84.6361 251.595 84.2697 251.414 83.9626C251.232 83.6555 250.937 83.4324 250.592 83.3421L217.442 74.8817C217.095 74.7944 216.728 74.8482 216.42 75.0313C216.113 75.2144 215.891 75.5119 215.802 75.8585V75.8585C215.759 76.0298 215.75 76.2078 215.776 76.3825C215.802 76.5572 215.862 76.7251 215.953 76.8766C216.043 77.0281 216.163 77.1602 216.305 77.2654C216.447 77.3706 216.608 77.4468 216.779 77.4896Z" fill="#262E60"/>
<path opacity="0.3" d="M216.779 77.4896L249.929 85.95C250.273 86.0374 250.639 85.9845 250.944 85.803C251.25 85.6215 251.472 85.3262 251.56 84.9819C251.648 84.6361 251.595 84.2697 251.414 83.9626C251.232 83.6555 250.937 83.4324 250.592 83.3421L217.442 74.8817C217.095 74.7944 216.728 74.8482 216.42 75.0313C216.113 75.2144 215.891 75.5119 215.802 75.8585V75.8585C215.759 76.0298 215.75 76.2078 215.776 76.3825C215.802 76.5572 215.862 76.7251 215.953 76.8766C216.043 77.0281 216.163 77.1602 216.305 77.2654C216.447 77.3706 216.608 77.4468 216.779 77.4896Z" fill="white"/>
<path d="M231.234 87.6227C231.072 89.1945 230.39 90.6674 229.298 91.8093C227.85 93.3008 226.419 92.2977 226.236 90.4138C226.07 88.7217 226.628 85.9044 228.364 85.1194C230.1 84.3345 231.418 85.73 231.234 87.6227Z" fill="#FF8B7B"/>
<path d="M228.496 165.817C228.496 165.817 227.754 211.417 233.486 229.297C242.567 257.618 269.993 280.557 269.993 280.557L279.799 273.483C279.799 273.483 256.96 254.103 252.773 230.265C249.013 208.835 250.61 183.34 250.61 165.835L228.496 165.817Z" fill="#262E60"/>
<path opacity="0.3" d="M228.496 165.817C228.496 165.817 227.754 211.417 233.486 229.297C242.567 257.618 269.993 280.557 269.993 280.557L279.799 273.483C279.799 273.483 256.96 254.103 252.773 230.265C249.013 208.835 250.61 183.34 250.61 165.835L228.496 165.817Z" fill="black"/>
<path d="M234.89 173.649C236.102 181.866 231.819 204.744 230.336 212.236C228.783 198.228 228.495 181.613 228.469 172.542C231.61 170.414 234.331 169.864 234.89 173.649Z" fill="#262E60"/>
<path opacity="0.4" d="M234.89 173.649C236.102 181.866 231.819 204.744 230.336 212.236C228.783 198.228 228.495 181.613 228.469 172.542C231.61 170.414 234.331 169.864 234.89 173.649Z" fill="black"/>
<path d="M265.797 278.489C265.753 278.489 269.827 280.888 269.827 280.888L280.531 273.16L276.972 270.43L265.797 278.489Z" fill="#262E60"/>
<path opacity="0.4" d="M265.797 278.489C265.753 278.489 269.827 280.888 269.827 280.888L280.531 273.16L276.972 270.43L265.797 278.489Z" fill="white"/>
<path d="M216.335 165.817C216.335 165.817 206.678 206.724 205.997 226.262C205.238 248.18 212.889 299.867 212.889 299.867H223.758C223.758 299.867 225.102 247.779 225.582 227.814C226.105 206.052 238.885 165.817 238.885 165.817H216.335Z" fill="#262E60"/>
<path opacity="0.3" d="M216.335 165.817C216.335 165.817 206.678 206.724 205.997 226.262C205.238 248.18 212.889 299.867 212.889 299.867H223.758C223.758 299.867 225.102 247.779 225.582 227.814C226.105 206.052 238.885 165.817 238.885 165.817H216.335Z" fill="black"/>
<path d="M210.795 295.541C210.751 295.541 211.414 300.051 211.414 300.051H224.63L224.988 296.03L210.795 295.541Z" fill="#262E60"/>
<path opacity="0.4" d="M210.795 295.541C210.751 295.541 211.414 300.051 211.414 300.051H224.63L224.988 296.03L210.795 295.541Z" fill="white"/>
</svg>
